<?xml version="1.0" encoding="utf-8"?>
<!-- Generator: Adobe Illustrator 23.0.3, SVG Export Plug-In . SVG Version: 6.00 Build 0)  -->
<svg version="1.1" id="Layer_1" xmlns="http://www.w3.org/2000/svg" xmlns:xlink="http://www.w3.org/1999/xlink" x="0px" y="0px"
	 viewBox="0 0 512 512" style="enable-background:new 0 0 512 512;" xml:space="preserve">
<style type="text/css">
	.st0{fill:#8257E5;}
	.st1{fill:#FFB332;}
	.st2{fill:#191919;}
	.st3{opacity:0.3;fill:#191919;}
	.st4{fill:#333333;}
	.st5{fill:#04D361;}
	.st6{fill:#FFDD40;}
	.st7{fill:#FF9100;}
</style>
<g>
	<path class="st0" d="M245,11c-74.5,0-141.2,33.2-186.1,85.7l61.8,370.4c36.5,21.5,79,33.9,124.3,33.9c135.3,0,245-109.7,245-245
		S380.3,11,245,11L245,11z"/>
	<g>
		<path class="st1" d="M246,78c-2.3-4.6-0.3-10.2,4.3-12.5l28.5-13.9c7.6-3.7,16.2-4.1,24.1-1.2c4.8,1.8,7.3,7.2,5.5,12
			c-1.8,4.8-7.2,7.3-12,5.5c-3.1-1.1-6.5-1-9.5,0.5l-28.5,13.9C253.8,84.5,248.2,82.6,246,78L246,78z"/>
	</g>
	<path class="st2" d="M195.3,356.2c-66.5,0-125.4,9.5-161.4,24.2c21.3,36.1,51.6,66.3,87.9,87.4c22.7,2.6,47.6,4.1,73.5,4.1
		c109.6,0,198.5-25.9,198.5-57.9C393.8,382.1,305,356.2,195.3,356.2L195.3,356.2z"/>
	<path class="st3" d="M196.9,356.2v38.7c0,0,95.1,44.3-1.6,77.1c109.6,0,198.5-25.9,198.5-57.9C393.8,382.2,305.8,356.4,196.9,356.2
		z"/>
	<path class="st4" d="M493.1,169.6L221.4,45.8c-16.6-7.6-35.6-7.6-52.2,0L59.7,95.7C22.5,138.7,0,194.7,0,256
		c0,6.6,0.3,13.1,0.8,19.5l0.8,0.4v-28.3c0-12.7,20.4-26.3,54.7-36.3c76.7-22.4,201.4-22.4,278.1,0c34.2,10,54.7,23.6,54.7,36.3
		v28.3l104.1-47.4C518.3,216.9,518.3,181.1,493.1,169.6L493.1,169.6z"/>
	<path class="st5" d="M195.3,189.7c-95.9,0-175.9,19.8-194.5,46.2C0.3,242.5,0,249.2,0,256c0,33.1,6.6,64.7,18.5,93.5
		c32.9-18.7,99.7-31.5,176.8-31.5c102.8,0,187.3,22.8,197.5,51.9h1V247.6C393.8,215.6,305,189.7,195.3,189.7L195.3,189.7z"/>
	<path class="st4" d="M195.3,315.4c-77.8,0-145.1,13-177.6,32c5.3,13.2,11.7,25.8,19.1,37.7c21.5-8.3,50.4-14.8,83.9-18.8
		c23.8-2.8,47.4,6,63.6,23.7c6,6.5,16.2,6.5,22.2,0c16.1-17.7,39.8-26.5,63.6-23.7c66.6,7.9,115.2,26,122.8,47.7h1v-46.6h-1
		C382.6,338.2,298.1,315.4,195.3,315.4L195.3,315.4z"/>
	<path class="st3" d="M154.8,182.5c-83-55,5.5-132.7,5.5-132.7L59.7,95.7C26.6,133.9,5.2,182.5,0.8,235.9c0,0,0,0,0,0
		c0,0.1,0,0.3,0,0.4c-0.1,1.4-0.2,2.9-0.3,4.3c0,0.3,0,0.7-0.1,1c-0.1,1.3-0.2,2.7-0.2,4c0,0.7,0,1.4-0.1,2c0,1-0.1,2.1-0.1,3.1
		c0,1.8-0.1,3.5-0.1,5.3c0,1.9,0,3.7,0.1,5.6c0,0.7,0,1.4,0.1,2.1c0,1.1,0.1,2.2,0.1,3.3c0,0.9,0.1,1.8,0.1,2.6
		c0.1,0.9,0.1,1.9,0.2,2.8c0.1,0.9,0.1,1.9,0.2,2.8c0,0.1,0,0.2,0,0.3l0,0c2,25.3,7.8,49.4,16.9,72c0,0,0,0,0,0
		c0.2,0.4,0.3,0.8,0.5,1.2c0.1,0.3,0.2,0.6,0.3,0.8c0,0,0,0,0,0c5.1,12.4,11.3,24.4,18.3,35.7c21.5-8.3,50.4-14.8,83.9-18.8
		c5.2-0.6,10.4-0.7,15.6-0.2c0.4-2.2,0.2-4.4-0.5-6.6c-6.1-17.9,2.7-30.3,9.9-37c0.9-0.8,1.5-1.8,1.9-2.9c0,0,0,0,0,0c0,0,0,0,0,0
		c0.2-0.7,0.4-1.3,0.5-2c0-0.1,0-0.1,0-0.2c0-0.1,0-0.2,0-0.3c0,0,0,0,0,0c0.1-2.1-0.7-4.2-2.2-5.9c-9.8-10.2-9.8-25.6-9.8-25.6
		s0-40.3,0-63.7c0-12.8,9.7-21.2,18.4-26.1c1.4-0.8,2.4-1.9,3.1-3.1c0-0.1,0.1-0.1,0.1-0.2c0.1-0.2,0.2-0.4,0.3-0.6
		c0-0.1,0.1-0.2,0.1-0.4c0.1-0.1,0.1-0.3,0.1-0.4c0-0.2,0.1-0.3,0.1-0.5c0,0,0-0.1,0-0.1c0,0,0,0,0,0
		C158.8,187.7,157.7,184.4,154.8,182.5z"/>
	<g>
		<path class="st6" d="M336.7,442l-16.2-74.4c-1.5-6.7,2.8-13.3,9.5-14.8c6.7-1.5,13.3,2.8,14.8,9.5l16.2,74.4
			c1.5,6.7-2.8,13.3-9.5,14.8C344.8,452.9,338.1,448.7,336.7,442z"/>
	</g>
	<g>
		<path class="st7" d="M275.9,451.5c-6.7-1.5-11-8.1-9.5-14.8l16.2-74.4c1.5-6.7,8.1-11,14.8-9.5c6.7,1.5,11,8.1,9.5,14.8L290.7,442
			C289.3,448.7,282.6,453,275.9,451.5z"/>
	</g>
	<g>
		<path class="st6" d="M313.7,273.3c-5.1,0-9.3-4.2-9.3-9.3V79.3c0-6.2-4.3-10-8-11.4c-4.8-1.8-7.3-7.2-5.5-12
			c1.8-4.8,7.1-7.3,12-5.5c12.2,4.5,20.1,15.9,20.1,28.9V264C323,269.2,318.8,273.3,313.7,273.3z"/>
	</g>
	<path class="st7" d="M313.7,303.9c6,0,11.7,1.4,16.8,4v-32.7c0-9.3-7.5-16.8-16.8-16.8c-9.3,0-16.8,7.5-16.8,16.8v32.7
		C302,305.4,307.7,303.9,313.7,303.9L313.7,303.9z"/>
	<g>
		<path class="st1" d="M313.7,451.8c-6.9,0-12.4-5.6-12.4-12.4V365c0-6.9,5.6-12.4,12.4-12.4c6.9,0,12.4,5.6,12.4,12.4v74.4
			C326.1,446.2,320.6,451.8,313.7,451.8L313.7,451.8z"/>
	</g>
	<ellipse class="st1" cx="313.8" cy="338.7" rx="37.3" ry="37.3"/>
	<ellipse class="st6" cx="320.2" cy="330.7" rx="18.6" ry="18.6"/>
</g>
</svg>
