<?xml version="1.0" encoding="utf-8"?>
<!-- Generator: Adobe Illustrator 23.0.3, SVG Export Plug-In . SVG Version: 6.00 Build 0)  -->
<svg version="1.1" id="Layer_1" xmlns="http://www.w3.org/2000/svg" xmlns:xlink="http://www.w3.org/1999/xlink" x="0px" y="0px"
	 viewBox="0 0 120 120" style="enable-background:new 0 0 120 120;" xml:space="preserve">
<style type="text/css">
	.st0{fill:#8257E5;}
</style>
<path class="st0" d="M74.1,59.3l19.2-19.2c3.6-3.6,4-9.4,0.7-13.2c-3.7-4.2-10-4.3-13.8-0.5L60.7,45.9c-0.4,0.4-1,0.4-1.4,0
	L40.1,26.7c-3.6-3.6-9.4-4-13.2-0.7c-4.2,3.7-4.3,10-0.5,13.8l19.4,19.4c0.4,0.4,0.4,1,0,1.4L26.7,79.9c-3.6,3.6-4,9.4-0.7,13.2
	c3.7,4.2,10,4.3,13.8,0.5l19.4-19.4c0.4-0.4,1-0.4,1.4,0l19.2,19.2c3.6,3.6,9.4,4,13.2,0.7c4.2-3.7,4.3-10,0.5-13.8L74.1,60.7
	C73.7,60.3,73.7,59.7,74.1,59.3z"/>
</svg>
