<?xml version="1.0" encoding="utf-8"?>
<!-- Generator: Adobe Illustrator 23.0.3, SVG Export Plug-In . SVG Version: 6.00 Build 0)  -->
<svg version="1.1" id="Layer_1" xmlns="http://www.w3.org/2000/svg" xmlns:xlink="http://www.w3.org/1999/xlink" x="0px" y="0px"
	 viewBox="0 0 20 20" style="enable-background:new 0 0 20 20;" xml:space="preserve">
<style type="text/css">
	.st0{fill:#FFFFFF;}
</style>
<path class="st0" d="M10,0.2c-5.4,0-9.8,4.4-9.8,9.8c0,2.2,0.7,4.2,1.9,5.8l-1.2,3.7l3.8-1.2c1.6,1,3.4,1.6,5.4,1.6
	c5.4,0,9.8-4.4,9.8-9.8S15.4,0.2,10,0.2z M15.7,14.1c-0.2,0.7-1.2,1.2-1.9,1.4c-0.5,0.1-1.2,0.2-3.4-0.7c-2.9-1.2-4.8-4.1-4.9-4.3
	c-0.1-0.2-1.2-1.6-1.2-3C4.3,6,5,5.3,5.3,5c0.2-0.2,0.6-0.4,1-0.4c0.1,0,0.2,0,0.3,0c0.3,0,0.4,0,0.6,0.5c0.2,0.6,0.8,2,0.9,2.1
	c0.1,0.1,0.1,0.3,0,0.5C8.1,8,8,8.1,7.9,8.3C7.7,8.4,7.6,8.6,7.4,8.7C7.3,8.9,7.1,9.1,7.3,9.4c0.2,0.3,0.7,1.2,1.6,2
	c1.1,1,2,1.3,2.3,1.4c0.2,0.1,0.5,0.1,0.7-0.1c0.2-0.2,0.5-0.6,0.8-1c0.2-0.3,0.5-0.3,0.7-0.2c0.3,0.1,1.7,0.8,2,0.9
	c0.3,0.1,0.5,0.2,0.6,0.3C16,12.8,16,13.4,15.7,14.1z"/>
</svg>
